# xmcd
#
# Track frame offsets:
#	150
#	23917
#	47947
#	77222
#	104137
#	128665
#	150687
#	170265
#	196365
#	221670
#	250002
#	288932
#	311977
#
# Disc length: 4503 seconds
#
# Revision: 4
# Processed by: cddbd v1.4PL0 Copyright (c) Steve Scherf et al.
# Submitted via: MusicManager 7.0.0.0 
#
DISCID=bb11950d
DTITLE=Clivilles and Cole's  - Greatest Remixes Vol. 1
DYEAR=1900
DGENRE=
TTITLE0=C&C Music Factory MTV Medley 
TTITLE1=Because Of You
TTITLE2=Don't Take Your Love Away 
TTITLE3=Two To Make It Right 
TTITLE4=Pride (In The Name Of Love) (Techno House Version) 
TTITLE5=Let The Beat Hit 'Em 
TTITLE6=Mind Your Business 
TTITLE7=You Take My Breath Away 
TTITLE8=A Deeper Love 
TTITLE9=Clouds 
TTITLE10=True Love
TTITLE11=Notice Me 
TTITLE12=Do It Properly 
EXTD=
EXTT0=
EXTT1=
EXTT2=
EXTT3=
EXTT4=
EXTT5=
EXTT6=
EXTT7=
EXTT8=
EXTT9=
EXTT10=
EXTT11=
EXTT12=
PLAYORDER=
